<svg xmlns="http://www.w3.org/2000/svg" width="34.139" height="37.998" viewBox="0 0 34.139 37.998"><path d="M31.875,37.939h-.72a2.5,2.5,0,0,1-2.264-2.5c.12-2.383-.254-8.2-5.711-8.2-3.538,0-7.995.011-11.631,0-6.455-.019-6.588,5.577-6.287,8.169A2.639,2.639,0,0,1,2.782,38H2.063C.672,38,.053,36.689.053,35.5c-.6-6.673,3.943-12.654,9.1-12.654H25.458c4.077,0,8.681,5.085,8.681,12.592A2.417,2.417,0,0,1,31.875,37.939ZM21.721,17.873a9.727,9.727,0,0,1-9.664,0,9.558,9.558,0,0,1-3.5-3.485A9.332,9.332,0,0,1,7.263,9.58,9.326,9.326,0,0,1,8.554,4.773a9.553,9.553,0,0,1,3.5-3.486,9.727,9.727,0,0,1,9.664,0,9.561,9.561,0,0,1,3.5,3.486A9.335,9.335,0,0,1,26.515,9.58a9.342,9.342,0,0,1-1.291,4.808A9.566,9.566,0,0,1,21.721,17.873Zm.117-11.25a5.711,5.711,0,0,0-2.079-2.091,5.718,5.718,0,0,0-5.735,0,5.714,5.714,0,0,0-2.08,2.091,5.81,5.81,0,0,0,0,5.767,5.714,5.714,0,0,0,2.08,2.091,5.718,5.718,0,0,0,5.735,0,5.711,5.711,0,0,0,2.079-2.091,5.8,5.8,0,0,0,0-5.767Z" transform="translate(0 -0.002)" fill="#25a541" fill-rule="evenodd"/></svg>